<svg width="15" height="15" viewBox="0 0 15 15" fill="none" xmlns="http://www.w3.org/2000/svg">
<path fill-rule="evenodd" clip-rule="evenodd" d="M6.99024 0.0268062C7.29512 0.0268062 7.54257 0.274248 7.54257 0.579132C7.54257 0.884016 7.29512 1.13146 6.99024 1.13146H4.23671C2.33376 1.13146 1.10465 2.43495 1.10465 4.45204V10.5748C1.10465 12.5919 2.33376 13.8953 4.23671 13.8953H10.735C12.638 13.8953 13.8678 12.5919 13.8678 10.5748V7.6084C13.8678 7.30352 14.1152 7.05608 14.4201 7.05608C14.725 7.05608 14.9725 7.30352 14.9725 7.6084V10.5748C14.9725 13.2215 13.2691 15 10.735 15H4.23671C1.70264 15 0 13.2215 0 10.5748V4.45204C0 1.8053 1.70264 0.0268062 4.23671 0.0268062H6.99024ZM13.4043 0.673838L14.3005 1.57008C14.7372 2.00605 14.9773 2.58562 14.9766 3.20276C14.9766 3.81989 14.7365 4.39873 14.3005 4.83396L8.77064 10.3638C8.36487 10.7696 7.82433 10.9935 7.24991 10.9935H4.49122C4.34246 10.9935 4.19959 10.9331 4.09576 10.8263C3.99192 10.7203 3.93521 10.5767 3.9389 10.4272L4.00812 7.64419C4.02211 7.09039 4.24525 6.56974 4.63704 6.17722H4.63777L10.1411 0.673838C11.0411 -0.224613 12.5044 -0.224613 13.4043 0.673838ZM9.6878 2.68872L5.41839 6.95857C5.22766 7.14931 5.1194 7.40264 5.11277 7.67144L5.05754 9.88885H7.24991C7.52975 9.88885 7.79192 9.78059 7.99002 9.58249L12.2852 5.28613L9.6878 2.68872ZM10.9218 1.4552L10.4684 1.90737L13.0658 4.50551L13.5199 4.0526C13.7467 3.82578 13.8719 3.52384 13.8719 3.20276C13.8719 2.88093 13.7467 2.57826 13.5199 2.35144L12.6237 1.4552C12.1546 0.987559 11.3916 0.987559 10.9218 1.4552Z" fill="#828282"/>
</svg>
