<svg width="83" height="99" viewBox="0 0 83 99" fill="none" xmlns="http://www.w3.org/2000/svg">
<path d="M82.9971 53.8379L41.4986 78.3838L0 53.8379C0 53.8195 5.98006e-06 53.7919 0.00612942 53.7704C0.0398083 53.6138 2.33304 51.6975 5.8234 48.8508C5.85708 48.8231 5.88463 48.7955 5.91831 48.7679C13.5573 42.5493 25.4184 33.0663 41.4986 20.3281C57.5787 33.0663 69.4398 42.5493 77.0788 48.7679C80.6243 51.6576 82.9573 53.6076 82.991 53.7704C82.9971 53.7919 82.9971 53.8195 82.9971 53.8379Z" fill="#007600"/>
<g filter="url(#filter0_d_1422_4813)">
<path d="M58.5647 0H13.7901C9.95069 0 6.83691 3.12313 6.83691 6.97405V74.875C6.83691 78.729 9.95069 81.8522 13.7901 81.8522H69.8961C73.7355 81.8522 76.8492 78.729 76.8492 74.875V18.3395L58.5647 0Z" fill="white"/>
<path d="M58.5654 11.3655C58.5654 15.2164 61.6792 18.3395 65.5186 18.3395H76.85L58.5654 0V11.3655Z" fill="#E6E8E8"/>
<path d="M35.3541 11.4805H19.9047C18.5391 11.4805 17.4277 12.5921 17.4277 13.9648V29.4576C17.4277 30.8303 18.5391 31.942 19.9047 31.942H35.3541C36.7196 31.942 37.831 30.8303 37.831 29.4576V13.9648C37.831 12.5921 36.7196 11.4805 35.3541 11.4805Z" fill="#008000"/>
<path d="M56.5136 37.6289H19.4484C18.3462 37.6289 17.4521 38.5256 17.4521 39.6311C17.4521 40.7367 18.3462 41.6334 19.4484 41.6334H56.5136C57.6158 41.6334 58.5098 40.7367 58.5098 39.6311C58.5098 38.5256 57.6158 37.6289 56.5136 37.6289Z" fill="#D9DBDB"/>
<path d="M56.5136 47.5977H19.4484C18.3462 47.5977 17.4521 48.4944 17.4521 49.5999C17.4521 50.7054 18.3462 51.6021 19.4484 51.6021H56.5136C57.6158 51.6021 58.5098 50.7054 58.5098 49.5999C58.5098 48.4944 57.6158 47.5977 56.5136 47.5977Z" fill="#D9DBDB"/>
<path d="M39.6802 57.2695H19.4484C18.3462 57.2695 17.4521 58.1662 17.4521 59.2718C17.4521 60.3773 18.3462 61.274 19.4484 61.274H39.6802C40.7825 61.274 41.6765 60.3773 41.6765 59.2718C41.6765 58.1662 40.7825 57.2695 39.6802 57.2695Z" fill="#D9DBDB"/>
</g>
<path d="M82.9999 53.8398V93.7709C82.9999 96.5624 80.7281 98.841 77.945 98.841H5.0485C2.2654 98.841 0.00585938 96.5624 0.00585938 93.7709V53.8398L41.5044 78.3795L82.9999 53.8398Z" fill="#06AA06"/>
<path d="M81.5971 97.2508L54.8898 70.4601L41.5039 78.3769L28.1119 70.457L1.39844 97.2508C2.32002 98.2242 3.60899 98.8384 5.048 98.8384H77.9445C79.3804 98.8384 80.6756 98.2242 81.5971 97.2508Z" fill="#008000"/>
<defs>
<filter id="filter0_d_1422_4813" x="2.83691" y="0" width="78.0132" height="89.8525" filterUnits="userSpaceOnUse" color-interpolation-filters="sRGB">
<feFlood flood-opacity="0" result="BackgroundImageFix"/>
<feColorMatrix in="SourceAlpha" type="matrix" values="0 0 0 0 0 0 0 0 0 0 0 0 0 0 0 0 0 0 127 0" result="hardAlpha"/>
<feOffset dy="4"/>
<feGaussianBlur stdDeviation="2"/>
<feComposite in2="hardAlpha" operator="out"/>
<feColorMatrix type="matrix" values="0 0 0 0 0 0 0 0 0 0 0 0 0 0 0 0 0 0 0.25 0"/>
<feBlend mode="normal" in2="BackgroundImageFix" result="effect1_dropShadow_1422_4813"/>
<feBlend mode="normal" in="SourceGraphic" in2="effect1_dropShadow_1422_4813" result="shape"/>
</filter>
</defs>
</svg>
