<svg width="15" height="14" viewBox="0 0 15 14" fill="none" xmlns="http://www.w3.org/2000/svg">
<mask id="path-1-inside-1_658_16" fill="white">
<path d="M3.1275 1.72688V2.49875H2.5C1.83696 2.49875 1.20107 2.76214 0.732233 3.23098C0.263392 3.69983 0 4.33571 0 4.99875V9.37375C0 9.87103 0.197544 10.3479 0.549175 10.6996C0.900806 11.0512 1.37772 11.2488 1.875 11.2488H3.125V11.8738C3.125 12.371 3.32254 12.8479 3.67417 13.1996C4.02581 13.5512 4.50272 13.7488 5 13.7488H10C10.4973 13.7488 10.9742 13.5512 11.3258 13.1996C11.6775 12.8479 11.875 12.371 11.875 11.8738V11.2488H13.125C13.6223 11.2488 14.0992 11.0512 14.4508 10.6996C14.8025 10.3479 15 9.87103 15 9.37375V4.99875C15 4.33571 14.7366 3.69983 14.2678 3.23098C13.7989 2.76214 13.163 2.49875 12.5 2.49875H11.875V1.71875C11.875 1.49283 11.8305 1.26913 11.7439 1.06044C11.6574 0.851745 11.5306 0.662161 11.3707 0.502527C11.2108 0.342894 11.0211 0.216344 10.8123 0.130116C10.6034 0.0438875 10.3797 -0.000326793 10.1538 1.81835e-06L4.84375 0.00812683C4.38834 0.00878924 3.95181 0.190164 3.63003 0.51242C3.30824 0.834676 3.1275 1.27147 3.1275 1.72688ZM11.875 10.3113V8.74875C11.875 8.25147 11.6775 7.77456 11.3258 7.42293C10.9742 7.0713 10.4973 6.87375 10 6.87375H5C4.50272 6.87375 4.02581 7.0713 3.67417 7.42293C3.32254 7.77456 3.125 8.25147 3.125 8.74875V10.3113H1.875C1.62636 10.3113 1.3879 10.2125 1.21209 10.0367C1.03627 9.86085 0.9375 9.62239 0.9375 9.37375V4.99875C0.9375 4.58435 1.10212 4.18692 1.39515 3.8939C1.68817 3.60087 2.0856 3.43625 2.5 3.43625H12.5C12.9144 3.43625 13.3118 3.60087 13.6049 3.8939C13.8979 4.18692 14.0625 4.58435 14.0625 4.99875V9.37375C14.0625 9.62239 13.9637 9.86085 13.7879 10.0367C13.6121 10.2125 13.3736 10.3113 13.125 10.3113H11.875ZM10.9375 1.71875V2.49875H4.065V1.72688C4.065 1.29563 4.41375 0.946252 4.845 0.945627L10.155 0.937502C10.2577 0.937337 10.3594 0.957424 10.4544 0.996612C10.5493 1.0358 10.6356 1.09332 10.7082 1.16588C10.7809 1.23844 10.8386 1.32462 10.8779 1.41949C10.9173 1.51436 10.9375 1.61605 10.9375 1.71875ZM5 7.81125H10C10.2486 7.81125 10.4871 7.91002 10.6629 8.08584C10.8387 8.26165 10.9375 8.50011 10.9375 8.74875V11.8738C10.9375 12.1224 10.8387 12.3608 10.6629 12.5367C10.4871 12.7125 10.2486 12.8113 10 12.8113H5C4.75136 12.8113 4.5129 12.7125 4.33709 12.5367C4.16127 12.3608 4.0625 12.1224 4.0625 11.8738V8.74875C4.0625 8.50011 4.16127 8.26165 4.33709 8.08584C4.5129 7.91002 4.75136 7.81125 5 7.81125Z"/>
</mask>
<path d="M3.1275 1.72688V2.49875H2.5C1.83696 2.49875 1.20107 2.76214 0.732233 3.23098C0.263392 3.69983 0 4.33571 0 4.99875V9.37375C0 9.87103 0.197544 10.3479 0.549175 10.6996C0.900806 11.0512 1.37772 11.2488 1.875 11.2488H3.125V11.8738C3.125 12.371 3.32254 12.8479 3.67417 13.1996C4.02581 13.5512 4.50272 13.7488 5 13.7488H10C10.4973 13.7488 10.9742 13.5512 11.3258 13.1996C11.6775 12.8479 11.875 12.371 11.875 11.8738V11.2488H13.125C13.6223 11.2488 14.0992 11.0512 14.4508 10.6996C14.8025 10.3479 15 9.87103 15 9.37375V4.99875C15 4.33571 14.7366 3.69983 14.2678 3.23098C13.7989 2.76214 13.163 2.49875 12.5 2.49875H11.875V1.71875C11.875 1.49283 11.8305 1.26913 11.7439 1.06044C11.6574 0.851745 11.5306 0.662161 11.3707 0.502527C11.2108 0.342894 11.0211 0.216344 10.8123 0.130116C10.6034 0.0438875 10.3797 -0.000326793 10.1538 1.81835e-06L4.84375 0.00812683C4.38834 0.00878924 3.95181 0.190164 3.63003 0.51242C3.30824 0.834676 3.1275 1.27147 3.1275 1.72688ZM11.875 10.3113V8.74875C11.875 8.25147 11.6775 7.77456 11.3258 7.42293C10.9742 7.0713 10.4973 6.87375 10 6.87375H5C4.50272 6.87375 4.02581 7.0713 3.67417 7.42293C3.32254 7.77456 3.125 8.25147 3.125 8.74875V10.3113H1.875C1.62636 10.3113 1.3879 10.2125 1.21209 10.0367C1.03627 9.86085 0.9375 9.62239 0.9375 9.37375V4.99875C0.9375 4.58435 1.10212 4.18692 1.39515 3.8939C1.68817 3.60087 2.0856 3.43625 2.5 3.43625H12.5C12.9144 3.43625 13.3118 3.60087 13.6049 3.8939C13.8979 4.18692 14.0625 4.58435 14.0625 4.99875V9.37375C14.0625 9.62239 13.9637 9.86085 13.7879 10.0367C13.6121 10.2125 13.3736 10.3113 13.125 10.3113H11.875ZM10.9375 1.71875V2.49875H4.065V1.72688C4.065 1.29563 4.41375 0.946252 4.845 0.945627L10.155 0.937502C10.2577 0.937337 10.3594 0.957424 10.4544 0.996612C10.5493 1.0358 10.6356 1.09332 10.7082 1.16588C10.7809 1.23844 10.8386 1.32462 10.8779 1.41949C10.9173 1.51436 10.9375 1.61605 10.9375 1.71875ZM5 7.81125H10C10.2486 7.81125 10.4871 7.91002 10.6629 8.08584C10.8387 8.26165 10.9375 8.50011 10.9375 8.74875V11.8738C10.9375 12.1224 10.8387 12.3608 10.6629 12.5367C10.4871 12.7125 10.2486 12.8113 10 12.8113H5C4.75136 12.8113 4.5129 12.7125 4.33709 12.5367C4.16127 12.3608 4.0625 12.1224 4.0625 11.8738V8.74875C4.0625 8.50011 4.16127 8.26165 4.33709 8.08584C4.5129 7.91002 4.75136 7.81125 5 7.81125Z" fill="black"/>
<path d="M3.1275 2.49875V3.49875H4.1275V2.49875H3.1275ZM2.5 2.49875V1.49875V2.49875ZM0 4.99875H-1H0ZM0 9.37375H-1H0ZM1.875 11.2488V12.2488V11.2488ZM3.125 11.2488H4.125V10.2488H3.125V11.2488ZM3.125 11.8738H2.125H3.125ZM5 13.7488V14.7488V13.7488ZM10 13.7488V14.7488V13.7488ZM11.875 11.8738H12.875H11.875ZM11.875 11.2488V10.2488H10.875V11.2488H11.875ZM13.125 11.2488V12.2488V11.2488ZM15 9.37375H16H15ZM11.875 2.49875H10.875V3.49875H11.875V2.49875ZM11.875 1.71875L10.875 1.71875V1.71875H11.875ZM10.1538 1.81835e-06L10.1523 -0.999997L10.1522 -0.999997L10.1538 1.81835e-06ZM4.84375 0.00812683L4.8452 1.00813L4.84528 1.00813L4.84375 0.00812683ZM11.875 10.3113H10.875V11.3113H11.875V10.3113ZM11.875 8.74875H12.875H11.875ZM3.125 10.3113V11.3113H4.125V10.3113H3.125ZM0.9375 4.99875H-0.0625H0.9375ZM10.9375 2.49875V3.49875H11.9375V2.49875H10.9375ZM4.065 2.49875H3.065V3.49875H4.065V2.49875ZM4.845 0.945627L4.84645 1.94563L4.84653 1.94563L4.845 0.945627ZM10.155 0.937502L10.1565 1.9375L10.1566 1.9375L10.155 0.937502ZM5 7.81125V6.81125V7.81125ZM10 7.81125V6.81125V7.81125ZM4.0625 11.8738H3.0625H4.0625ZM2.1275 1.72688V2.49875H4.1275V1.72688H2.1275ZM3.1275 1.49875H2.5V3.49875H3.1275V1.49875ZM2.5 1.49875C1.57174 1.49875 0.681504 1.8675 0.0251263 2.52388L1.43934 3.93809C1.72064 3.65679 2.10218 3.49875 2.5 3.49875V1.49875ZM0.0251263 2.52388C-0.631251 3.18026 -1 4.07049 -1 4.99875L1 4.99875C1 4.60093 1.15804 4.2194 1.43934 3.93809L0.0251263 2.52388ZM-1 4.99875V9.37375H1V4.99875H-1ZM-1 9.37375C-1 10.1362 -0.697099 10.8675 -0.157932 11.4067L1.25628 9.99247C1.09219 9.82838 1 9.60582 1 9.37375H-1ZM-0.157932 11.4067C0.381235 11.9459 1.1125 12.2488 1.875 12.2488V10.2488C1.64294 10.2488 1.42038 10.1566 1.25628 9.99247L-0.157932 11.4067ZM1.875 12.2488H3.125V10.2488H1.875V12.2488ZM2.125 11.2488V11.8738H4.125V11.2488H2.125ZM2.125 11.8738C2.125 12.6362 2.4279 13.3675 2.96707 13.9067L4.38128 12.4925C4.21719 12.3284 4.125 12.1058 4.125 11.8738H2.125ZM2.96707 13.9067C3.50624 14.4459 4.2375 14.7488 5 14.7488V12.7488C4.76794 12.7488 4.54538 12.6566 4.38128 12.4925L2.96707 13.9067ZM5 14.7488H10V12.7488H5V14.7488ZM10 14.7488C10.7625 14.7488 11.4938 14.4459 12.0329 13.9067L10.6187 12.4925C10.4546 12.6566 10.2321 12.7488 10 12.7488V14.7488ZM12.0329 13.9067C12.5721 13.3675 12.875 12.6362 12.875 11.8738H10.875C10.875 12.1058 10.7828 12.3284 10.6187 12.4925L12.0329 13.9067ZM12.875 11.8738V11.2488H10.875V11.8738H12.875ZM11.875 12.2488H13.125V10.2488H11.875V12.2488ZM13.125 12.2488C13.8875 12.2488 14.6188 11.9459 15.1579 11.4067L13.7437 9.99247C13.5796 10.1566 13.3571 10.2488 13.125 10.2488V12.2488ZM15.1579 11.4067C15.6971 10.8675 16 10.1362 16 9.37375H14C14 9.60582 13.9078 9.82838 13.7437 9.99247L15.1579 11.4067ZM16 9.37375V4.99875H14V9.37375H16ZM16 4.99875C16 4.07049 15.6313 3.18025 14.9749 2.52388L13.5607 3.93809C13.842 4.2194 14 4.60093 14 4.99875H16ZM14.9749 2.52388C14.3185 1.8675 13.4283 1.49875 12.5 1.49875V3.49875C12.8978 3.49875 13.2794 3.65679 13.5607 3.93809L14.9749 2.52388ZM12.5 1.49875H11.875V3.49875H12.5V1.49875ZM12.875 2.49875V1.71875H10.875V2.49875H12.875ZM12.875 1.71875C12.875 1.36139 12.8045 1.00753 12.6677 0.677418L10.8202 1.44346C10.8564 1.53073 10.875 1.62427 10.875 1.71875L12.875 1.71875ZM12.6677 0.677418C12.5308 0.347306 12.3302 0.0474178 12.0773 -0.205093L10.6641 1.21015C10.731 1.2769 10.784 1.35618 10.8202 1.44346L12.6677 0.677418ZM12.0773 -0.205093C11.8244 -0.457604 11.5242 -0.657784 11.1939 -0.794181L10.4306 1.05441C10.5179 1.09047 10.5973 1.14339 10.6641 1.21015L12.0773 -0.205093ZM11.1939 -0.794181C10.8636 -0.930578 10.5097 -1.00052 10.1523 -0.999997L10.1552 1C10.2497 0.999863 10.3433 1.01835 10.4306 1.05441L11.1939 -0.794181ZM10.1522 -0.999997L4.84222 -0.991872L4.84528 1.00813L10.1553 1L10.1522 -0.999997ZM4.8423 -0.991872C4.12192 -0.990824 3.43141 -0.703923 2.9224 -0.194172L4.33765 1.21901C4.47221 1.08425 4.65476 1.0084 4.8452 1.00813L4.8423 -0.991872ZM2.9224 -0.194172C2.4134 0.315579 2.1275 1.00651 2.1275 1.72688L4.1275 1.72688C4.1275 1.53643 4.20308 1.35377 4.33765 1.21901L2.9224 -0.194172ZM12.875 10.3113V8.74875H10.875V10.3113H12.875ZM12.875 8.74875C12.875 7.98626 12.5721 7.25499 12.0329 6.71582L10.6187 8.13003C10.7828 8.29413 10.875 8.51669 10.875 8.74875H12.875ZM12.0329 6.71582C11.4938 6.17665 10.7625 5.87375 10 5.87375V7.87375C10.2321 7.87375 10.4546 7.96594 10.6187 8.13003L12.0329 6.71582ZM10 5.87375H5V7.87375H10V5.87375ZM5 5.87375C4.2375 5.87375 3.50624 6.17665 2.96707 6.71582L4.38128 8.13003C4.54538 7.96594 4.76794 7.87375 5 7.87375V5.87375ZM2.96707 6.71582C2.4279 7.25499 2.125 7.98625 2.125 8.74875H4.125C4.125 8.51669 4.21719 8.29413 4.38128 8.13003L2.96707 6.71582ZM2.125 8.74875V10.3113H4.125V8.74875H2.125ZM3.125 9.31125H1.875V11.3113H3.125V9.31125ZM1.875 9.31125C1.89158 9.31125 1.90747 9.31784 1.91919 9.32956L0.504981 10.7438C0.868331 11.1071 1.36114 11.3113 1.875 11.3113V9.31125ZM1.91919 9.32956C1.93091 9.34128 1.9375 9.35717 1.9375 9.37375H-0.0625C-0.0625 9.88761 0.141629 10.3804 0.504981 10.7438L1.91919 9.32956ZM1.9375 9.37375V4.99875H-0.0625V9.37375H1.9375ZM1.9375 4.99875C1.9375 4.84957 1.99676 4.70649 2.10225 4.601L0.688039 3.18679C0.207477 3.66735 -0.0625 4.31913 -0.0625 4.99875L1.9375 4.99875ZM2.10225 4.601C2.20774 4.49551 2.35082 4.43625 2.5 4.43625V2.43625C1.82038 2.43625 1.1686 2.70623 0.688039 3.18679L2.10225 4.601ZM2.5 4.43625H12.5V2.43625H2.5V4.43625ZM12.5 4.43625C12.6492 4.43625 12.7923 4.49551 12.8977 4.601L14.312 3.18679C13.8314 2.70623 13.1796 2.43625 12.5 2.43625V4.43625ZM12.8977 4.601C13.0032 4.70649 13.0625 4.84957 13.0625 4.99875H15.0625C15.0625 4.31913 14.7925 3.66735 14.312 3.18679L12.8977 4.601ZM13.0625 4.99875V9.37375H15.0625V4.99875H13.0625ZM13.0625 9.37375C13.0625 9.35717 13.0691 9.34128 13.0808 9.32956L14.495 10.7438C14.8584 10.3804 15.0625 9.88761 15.0625 9.37375H13.0625ZM13.0808 9.32956C13.0925 9.31784 13.1084 9.31125 13.125 9.31125V11.3113C13.6389 11.3113 14.1317 11.1071 14.495 10.7438L13.0808 9.32956ZM13.125 9.31125H11.875V11.3113H13.125V9.31125ZM9.9375 1.71875V2.49875H11.9375V1.71875H9.9375ZM10.9375 1.49875H4.065V3.49875H10.9375V1.49875ZM5.065 2.49875V1.72688H3.065V2.49875H5.065ZM5.065 1.72688C5.065 1.84715 4.96712 1.94545 4.84645 1.94563L4.84355 -0.0543723C3.86038 -0.0529474 3.065 0.744106 3.065 1.72688H5.065ZM4.84653 1.94563L10.1565 1.9375L10.1535 -0.0624972L4.84347 -0.0543722L4.84653 1.94563ZM10.1566 1.9375C10.1278 1.93755 10.0994 1.93192 10.0728 1.92095L10.8359 0.0722736C10.6195 -0.0170753 10.3876 -0.0628717 10.1534 -0.0624971L10.1566 1.9375ZM10.0728 1.92095C10.0462 1.90998 10.022 1.89387 10.0017 1.87355L11.4148 0.45821C11.2491 0.29277 11.0524 0.161623 10.8359 0.0722736L10.0728 1.92095ZM10.0017 1.87355C9.98135 1.85324 9.9652 1.82911 9.95419 1.80254L11.8016 1.03644C11.7119 0.82014 11.5805 0.62365 11.4148 0.45821L10.0017 1.87355ZM9.95419 1.80254C9.94317 1.77598 9.9375 1.7475 9.9375 1.71875L11.9375 1.71875C11.9375 1.4846 11.8913 1.25274 11.8016 1.03644L9.95419 1.80254ZM5 8.81125H10V6.81125H5V8.81125ZM10 8.81125C9.98342 8.81125 9.96753 8.80467 9.95581 8.79295L11.37 7.37873C11.0067 7.01538 10.5139 6.81125 10 6.81125V8.81125ZM9.95581 8.79295C9.94409 8.78123 9.9375 8.76533 9.9375 8.74875H11.9375C11.9375 8.23489 11.7334 7.74208 11.37 7.37873L9.95581 8.79295ZM9.9375 8.74875V11.8738H11.9375V8.74875H9.9375ZM9.9375 11.8738C9.9375 11.8572 9.94409 11.8413 9.95581 11.8296L11.37 13.2438C11.7334 12.8804 11.9375 12.3876 11.9375 11.8738H9.9375ZM9.95581 11.8296C9.96753 11.8178 9.98342 11.8113 10 11.8113V13.8113C10.5139 13.8113 11.0067 13.6071 11.37 13.2438L9.95581 11.8296ZM10 11.8113H5V13.8113H10V11.8113ZM5 11.8113C5.01658 11.8113 5.03247 11.8178 5.04419 11.8296L3.62998 13.2438C3.99333 13.6071 4.48614 13.8113 5 13.8113V11.8113ZM5.04419 11.8296C5.05591 11.8413 5.0625 11.8572 5.0625 11.8738H3.0625C3.0625 12.3876 3.26663 12.8804 3.62998 13.2438L5.04419 11.8296ZM5.0625 11.8738V8.74875H3.0625V11.8738H5.0625ZM5.0625 8.74875C5.0625 8.76533 5.05592 8.78122 5.04419 8.79295L3.62998 7.37873C3.26663 7.74208 3.0625 8.2349 3.0625 8.74875H5.0625ZM5.04419 8.79295C5.03247 8.80467 5.01658 8.81125 5 8.81125V6.81125C4.48614 6.81125 3.99333 7.01538 3.62998 7.37873L5.04419 8.79295Z" fill="#008000" mask="url(#path-1-inside-1_658_16)"/>
</svg>
