<svg width="15" height="15" viewBox="0 0 15 15" fill="none" xmlns="http://www.w3.org/2000/svg">
<path d="M2.5 1.25C2.16848 1.25 1.85054 1.3817 1.61612 1.61612C1.3817 1.85054 1.25 2.16848 1.25 2.5V12.5C1.25 12.8315 1.3817 13.1495 1.61612 13.3839C1.85054 13.6183 2.16848 13.75 2.5 13.75V9.375C2.5 8.87772 2.69754 8.40081 3.04917 8.04917C3.40081 7.69754 3.87772 7.5 4.375 7.5H10.625C11.1223 7.5 11.5992 7.69754 11.9508 8.04917C12.3025 8.40081 12.5 8.87772 12.5 9.375V13.75C12.8315 13.75 13.1495 13.6183 13.3839 13.3839C13.6183 13.1495 13.75 12.8315 13.75 12.5V4.525C13.7499 4.19351 13.6182 3.87562 13.3837 3.64125L11.3575 1.615C11.1229 1.38102 10.8051 1.24974 10.4737 1.25H10V3.125C10 3.62228 9.80246 4.09919 9.45083 4.45083C9.09919 4.80246 8.62228 5 8.125 5H5.625C5.12772 5 4.65081 4.80246 4.29917 4.45083C3.94754 4.09919 3.75 3.62228 3.75 3.125V1.25H2.5ZM5 1.25V3.125C5 3.29076 5.06585 3.44973 5.18306 3.56694C5.30027 3.68415 5.45924 3.75 5.625 3.75H8.125C8.29076 3.75 8.44973 3.68415 8.56694 3.56694C8.68415 3.44973 8.75 3.29076 8.75 3.125V1.25H5ZM11.25 13.75V9.375C11.25 9.20924 11.1842 9.05027 11.0669 8.93306C10.9497 8.81585 10.7908 8.75 10.625 8.75H4.375C4.20924 8.75 4.05027 8.81585 3.93306 8.93306C3.81585 9.05027 3.75 9.20924 3.75 9.375V13.75H11.25ZM0 2.5C0 1.83696 0.263392 1.20107 0.732233 0.732233C1.20107 0.263392 1.83696 0 2.5 0H10.4737C11.1367 0.000141594 11.7725 0.263627 12.2413 0.7325L14.2675 2.75875C14.7364 3.22748 14.9999 3.86326 15 4.52625V12.5C15 13.163 14.7366 13.7989 14.2678 14.2678C13.7989 14.7366 13.163 15 12.5 15H2.5C1.83696 15 1.20107 14.7366 0.732233 14.2678C0.263392 13.7989 0 13.163 0 12.5V2.5Z" fill="#008000"/>
</svg>
